<svg xmlns="http://www.w3.org/2000/svg" viewBox="0 0 132 132" width="132" height="132"><line x1="22" y1="0" x2="22" y2="132" stroke="rgba(255,255,255,0.045)" stroke-width="1"/><line x1="66" y1="0" x2="66" y2="132" stroke="rgba(255,255,255,0.045)" stroke-width="1"/><line x1="110" y1="0" x2="110" y2="132" stroke="rgba(255,255,255,0.045)" stroke-width="1"/><line x1="0" y1="22" x2="132" y2="22" stroke="rgba(255,255,255,0.045)" stroke-width="1"/><line x1="0" y1="66" x2="132" y2="66" stroke="rgba(255,255,255,0.045)" stroke-width="1"/><line x1="0" y1="110" x2="132" y2="110" stroke="rgba(255,255,255,0.045)" stroke-width="1"/><line x1="-22" y1="-22" x2="22" y2="22" stroke="rgba(255,255,255,0.055)" stroke-width="1" stroke-dasharray="3 4"/><line x1="22" y1="-22" x2="-22" y2="22" stroke="rgba(255,255,255,0.055)" stroke-width="1" stroke-dasharray="3 4"/><line x1="-22" y1="22" x2="22" y2="66" stroke="rgba(255,255,255,0.055)" stroke-width="1" stroke-dasharray="3 4"/><line x1="22" y1="22" x2="-22" y2="66" stroke="rgba(255,255,255,0.055)" stroke-width="1" stroke-dasharray="3 4"/><line x1="-22" y1="66" x2="22" y2="110" stroke="rgba(255,255,255,0.055)" stroke-width="1" stroke-dasharray="3 4"/><line x1="22" y1="66" x2="-22" y2="110" stroke="rgba(255,255,255,0.055)" stroke-width="1" stroke-dasharray="3 4"/><line x1="-22" y1="110" x2="22" y2="154" stroke="rgba(255,255,255,0.055)" stroke-width="1" stroke-dasharray="3 4"/><line x1="22" y1="110" x2="-22" y2="154" stroke="rgba(255,255,255,0.055)" stroke-width="1" stroke-dasharray="3 4"/><line x1="22" y1="-22" x2="66" y2="22" stroke="rgba(255,255,255,0.055)" stroke-width="1" stroke-dasharray="3 4"/><line x1="66" y1="-22" x2="22" y2="22" stroke="rgba(255,255,255,0.055)" stroke-width="1" stroke-dasharray="3 4"/><line x1="22" y1="22" x2="66" y2="66" stroke="rgba(255,255,255,0.055)" stroke-width="1" stroke-dasharray="3 4"/><line x1="66" y1="22" x2="22" y2="66" stroke="rgba(255,255,255,0.055)" stroke-width="1" stroke-dasharray="3 4"/><line x1="22" y1="66" x2="66" y2="110" stroke="rgba(255,255,255,0.055)" stroke-width="1" stroke-dasharray="3 4"/><line x1="66" y1="66" x2="22" y2="110" stroke="rgba(255,255,255,0.055)" stroke-width="1" stroke-dasharray="3 4"/><line x1="22" y1="110" x2="66" y2="154" stroke="rgba(255,255,255,0.055)" stroke-width="1" stroke-dasharray="3 4"/><line x1="66" y1="110" x2="22" y2="154" stroke="rgba(255,255,255,0.055)" stroke-width="1" stroke-dasharray="3 4"/><line x1="66" y1="-22" x2="110" y2="22" stroke="rgba(255,255,255,0.055)" stroke-width="1" stroke-dasharray="3 4"/><line x1="110" y1="-22" x2="66" y2="22" stroke="rgba(255,255,255,0.055)" stroke-width="1" stroke-dasharray="3 4"/><line x1="66" y1="22" x2="110" y2="66" stroke="rgba(255,255,255,0.055)" stroke-width="1" stroke-dasharray="3 4"/><line x1="110" y1="22" x2="66" y2="66" stroke="rgba(255,255,255,0.055)" stroke-width="1" stroke-dasharray="3 4"/><line x1="66" y1="66" x2="110" y2="110" stroke="rgba(255,255,255,0.055)" stroke-width="1" stroke-dasharray="3 4"/><line x1="110" y1="66" x2="66" y2="110" stroke="rgba(255,255,255,0.055)" stroke-width="1" stroke-dasharray="3 4"/><line x1="66" y1="110" x2="110" y2="154" stroke="rgba(255,255,255,0.055)" stroke-width="1" stroke-dasharray="3 4"/><line x1="110" y1="110" x2="66" y2="154" stroke="rgba(255,255,255,0.055)" stroke-width="1" stroke-dasharray="3 4"/><line x1="110" y1="-22" x2="154" y2="22" stroke="rgba(255,255,255,0.055)" stroke-width="1" stroke-dasharray="3 4"/><line x1="154" y1="-22" x2="110" y2="22" stroke="rgba(255,255,255,0.055)" stroke-width="1" stroke-dasharray="3 4"/><line x1="110" y1="22" x2="154" y2="66" stroke="rgba(255,255,255,0.055)" stroke-width="1" stroke-dasharray="3 4"/><line x1="154" y1="22" x2="110" y2="66" stroke="rgba(255,255,255,0.055)" stroke-width="1" stroke-dasharray="3 4"/><line x1="110" y1="66" x2="154" y2="110" stroke="rgba(255,255,255,0.055)" stroke-width="1" stroke-dasharray="3 4"/><line x1="154" y1="66" x2="110" y2="110" stroke="rgba(255,255,255,0.055)" stroke-width="1" stroke-dasharray="3 4"/><line x1="110" y1="110" x2="154" y2="154" stroke="rgba(255,255,255,0.055)" stroke-width="1" stroke-dasharray="3 4"/><line x1="154" y1="110" x2="110" y2="154" stroke="rgba(255,255,255,0.055)" stroke-width="1" stroke-dasharray="3 4"/><path d="M16.5 22 H27.5 M22 16.5 V27.5" stroke="rgba(255,255,255,0.3)" stroke-width="1.1" stroke-linecap="square"/><path d="M16.5 66 H27.5 M22 60.5 V71.5" stroke="rgba(255,255,255,0.3)" stroke-width="1.1" stroke-linecap="square"/><path d="M16.5 110 H27.5 M22 104.5 V115.5" stroke="rgba(255,255,255,0.3)" stroke-width="1.1" stroke-linecap="square"/><path d="M60.5 22 H71.5 M66 16.5 V27.5" stroke="rgba(255,255,255,0.3)" stroke-width="1.1" stroke-linecap="square"/><path d="M60.5 66 H71.5 M66 60.5 V71.5" stroke="rgba(255,255,255,0.3)" stroke-width="1.1" stroke-linecap="square"/><path d="M60.5 110 H71.5 M66 104.5 V115.5" stroke="rgba(255,255,255,0.3)" stroke-width="1.1" stroke-linecap="square"/><path d="M104.5 22 H115.5 M110 16.5 V27.5" stroke="rgba(255,255,255,0.3)" stroke-width="1.1" stroke-linecap="square"/><path d="M104.5 66 H115.5 M110 60.5 V71.5" stroke="rgba(255,255,255,0.3)" stroke-width="1.1" stroke-linecap="square"/><path d="M104.5 110 H115.5 M110 104.5 V115.5" stroke="rgba(255,255,255,0.3)" stroke-width="1.1" stroke-linecap="square"/></svg>